<svg id="visual" viewBox="0 0 900 600" width="900" height="600" xmlns="http://www.w3.org/2000/svg" xmlns:xlink="http://www.w3.org/1999/xlink" version="1.1"><path d="M0 351L21.5 339.8C43 328.7 86 306.3 128.8 302.5C171.7 298.7 214.3 313.3 257.2 324.2C300 335 343 342 385.8 345.8C428.7 349.7 471.3 350.3 514.2 346.2C557 342 600 333 642.8 321C685.7 309 728.3 294 771.2 291.8C814 289.7 857 300.3 878.5 305.7L900 311L900 601L878.5 601C857 601 814 601 771.2 601C728.3 601 685.7 601 642.8 601C600 601 557 601 514.2 601C471.3 601 428.7 601 385.8 601C343 601 300 601 257.2 601C214.3 601 171.7 601 128.8 601C86 601 43 601 21.5 601L0 601Z" fill="#a286cc"></path><path d="M0 386L21.5 378.7C43 371.3 86 356.7 128.8 358.5C171.7 360.3 214.3 378.7 257.2 381.7C300 384.7 343 372.3 385.8 369C428.7 365.7 471.3 371.3 514.2 371C557 370.7 600 364.3 642.8 359.8C685.7 355.3 728.3 352.7 771.2 356.5C814 360.3 857 370.7 878.5 375.8L900 381L900 601L878.5 601C857 601 814 601 771.2 601C728.3 601 685.7 601 642.8 601C600 601 557 601 514.2 601C471.3 601 428.7 601 385.8 601C343 601 300 601 257.2 601C214.3 601 171.7 601 128.8 601C86 601 43 601 21.5 601L0 601Z" fill="#8e6cc0"></path><path d="M0 414L21.5 418.2C43 422.3 86 430.7 128.8 427.5C171.7 424.3 214.3 409.7 257.2 409.5C300 409.3 343 423.7 385.8 423.7C428.7 423.7 471.3 409.3 514.2 404.8C557 400.3 600 405.7 642.8 407.3C685.7 409 728.3 407 771.2 405.7C814 404.3 857 403.7 878.5 403.3L900 403L900 601L878.5 601C857 601 814 601 771.2 601C728.3 601 685.7 601 642.8 601C600 601 557 601 514.2 601C471.3 601 428.7 601 385.8 601C343 601 300 601 257.2 601C214.3 601 171.7 601 128.8 601C86 601 43 601 21.5 601L0 601Z" fill="#7952b3"></path><path d="M0 459L21.5 460.7C43 462.3 86 465.7 128.8 472C171.7 478.3 214.3 487.7 257.2 486.8C300 486 343 475 385.8 475C428.7 475 471.3 486 514.2 492.5C557 499 600 501 642.8 500C685.7 499 728.3 495 771.2 486.3C814 477.7 857 464.3 878.5 457.7L900 451L900 601L878.5 601C857 601 814 601 771.2 601C728.3 601 685.7 601 642.8 601C600 601 557 601 514.2 601C471.3 601 428.7 601 385.8 601C343 601 300 601 257.2 601C214.3 601 171.7 601 128.8 601C86 601 43 601 21.5 601L0 601Z" fill="#68479b"></path><path d="M0 526L21.5 526.5C43 527 86 528 128.8 527C171.7 526 214.3 523 257.2 520.7C300 518.3 343 516.7 385.8 519.2C428.7 521.7 471.3 528.3 514.2 532.8C557 537.3 600 539.7 642.8 536.5C685.7 533.3 728.3 524.7 771.2 519.7C814 514.7 857 513.3 878.5 512.7L900 512L900 601L878.5 601C857 601 814 601 771.2 601C728.3 601 685.7 601 642.8 601C600 601 557 601 514.2 601C471.3 601 428.7 601 385.8 601C343 601 300 601 257.2 601C214.3 601 171.7 601 128.8 601C86 601 43 601 21.5 601L0 601Z" fill="#583c83"></path></svg>